<svg width="21" height="23" viewBox="0 0 21 23" fill="none" xmlns="http://www.w3.org/2000/svg">
<path d="M20.816 21.8609C20.9232 21.6945 20.9603 21.4924 20.9192 21.2988C20.8781 21.1052 20.7621 20.9357 20.5966 20.8273C19.7856 20.301 18.8447 19.6848 17.8331 18.9895C18.227 17.4072 18.4812 15.7934 18.5928 14.1666C18.7548 11.2923 18.2621 8.98178 17.1259 7.16817C14.9142 3.66449 10.6997 2.8037 7.30886 2.10949C5.22383 1.6841 3.25725 1.28792 2.45244 0.386538C2.35774 0.281124 2.23511 0.20473 2.09877 0.166215C1.96243 0.127701 1.81797 0.128642 1.68214 0.168933C1.54631 0.209224 1.42468 0.287212 1.33135 0.393853C1.23802 0.500494 1.17682 0.631418 1.15484 0.771443C1.06177 1.22424 -0.402113 11.6167 5.09172 17.0774C7.80003 19.7606 11.6994 20.7538 16.6942 20.0216C17.8191 20.8359 18.8627 21.4955 19.7829 22.0805C19.9492 22.1877 20.1511 22.2248 20.3447 22.1837C20.5382 22.1426 20.7076 22.0265 20.816 21.8609V21.8609ZM6.13467 16.0174C2.25309 12.1793 2.34081 5.16343 2.50282 2.28913C3.93937 2.92235 5.45474 3.35884 7.00793 3.5868C10.2803 4.25182 13.9828 5.00865 15.8575 7.96771C17.29 10.2486 17.5009 13.5644 16.505 18.0511C12.5669 15.2161 8.12418 11.3464 6.74538 6.91347C6.67814 6.73428 6.54494 6.5876 6.37308 6.50351C6.20123 6.41942 6.00372 6.40428 5.82106 6.46119C5.63839 6.51811 5.4844 6.64276 5.39064 6.80961C5.29688 6.97646 5.27046 7.17287 5.31679 7.35857C6.73204 11.9437 10.9503 15.8008 14.8618 18.7094C11.1401 18.9577 8.21877 18.0572 6.15006 16.0108L6.13467 16.0174Z" fill="#359740"/>
</svg>
