<svg width="22" height="22" viewBox="0 0 22 22" fill="none" xmlns="http://www.w3.org/2000/svg">
<path d="M19.3868 6.17495C18.1399 4.27189 16.1876 3.07213 14.0929 2.73427C14.1143 2.58947 14.0929 2.43088 14.0145 2.29297C13.8649 2.03096 13.5585 1.88616 13.245 1.94822L8.92013 2.81011L8.32163 1.03116C8.23613 0.776039 8.001 0.58987 7.72313 0.562289C7.44525 0.534709 7.1745 0.665717 7.032 0.900152L5.74238 3.03076C4.866 2.38261 3.79013 1.94132 2.7 1.94132C2.30813 1.94132 1.9875 2.2516 1.9875 2.63084C1.9875 3.01007 2.30813 3.32035 2.7 3.32035C3.5265 3.32035 4.353 3.70648 5.0085 4.22362L0.883129 6.88515C0.619504 7.05064 0.505504 7.36781 0.598129 7.65741C0.683629 7.94701 0.961504 8.14697 1.275 8.14697H3.17738L2.00888 12.0979C1.92338 12.4013 2.05163 12.7185 2.3295 12.877C2.4435 12.946 2.57175 12.9667 2.7 12.9667C2.71425 15.2214 3.74738 17.4072 5.64975 18.8138C8.46413 20.8892 12.561 21.9442 17.8335 21.9442C18.033 21.9442 18.2325 21.9442 18.432 21.9373C20.085 21.9097 21.4886 20.6893 21.6953 19.0965C22.3721 13.8906 21.5955 9.54668 19.3868 6.17495ZM20.2845 18.9241C20.1634 19.8412 19.3654 20.5445 18.4178 20.5583C13.1809 20.6341 9.17663 19.6826 6.519 17.7175C4.65225 16.3384 3.81863 14.0285 4.23188 11.8083L5.25788 10.8499C4.31738 13.1253 4.99425 15.7247 6.95363 17.1727C9.38325 18.9655 13.0455 19.8756 17.8335 19.8756C18.0259 19.8756 18.2183 19.8756 18.4178 19.8687C18.8096 19.8618 19.1231 19.5447 19.116 19.1654C19.1089 18.7862 18.7883 18.4897 18.4035 18.4897C18.3964 18.4897 18.3964 18.4897 18.3893 18.4897C13.6511 18.5725 10.0886 17.745 7.82288 16.0764C6.29813 14.9525 5.82788 12.8495 6.71138 11.0843L8.55675 13.4011C8.685 13.5666 8.89875 13.6631 9.1125 13.6631C9.19088 13.6631 9.26925 13.6493 9.3405 13.6286C9.63263 13.5321 9.825 13.2701 9.825 12.9736V8.06422L14.898 7.45056C15.2186 7.40918 15.4751 7.16785 15.5179 6.85757C15.5606 6.54729 15.3825 6.2508 15.0833 6.12668L12.0765 4.93382L12.9885 4.01677C15.0191 4.05124 16.9928 5.08551 18.1826 6.90584C20.2061 10.0087 20.9186 14.0492 20.2845 18.9241ZM5.94188 5.27168C5.95613 5.26479 5.95613 5.25789 5.96325 5.251C6.15563 5.54749 6.2625 5.83709 6.2625 6.07842C6.2625 6.45765 6.58313 6.76793 6.975 6.76793C7.36688 6.76793 7.6875 6.45765 7.6875 6.07842C7.6875 5.42338 7.3455 4.6856 6.78975 4.01677L7.45238 2.92043L7.75875 3.8306C7.87275 4.16846 8.229 4.36152 8.57813 4.29257L11.2643 3.75475L10.3095 4.71318C10.1456 4.87866 10.0744 5.1131 10.1243 5.33374C10.1741 5.55439 10.3309 5.74056 10.5518 5.83019L12.0195 6.40939L9.01988 6.77483C8.67075 6.8162 8.4 7.11269 8.4 7.45745V10.9464L6.61875 8.70547C6.49763 8.54689 6.30525 8.45035 6.10575 8.43656C6.0915 8.43656 6.07013 8.43656 6.05588 8.43656C5.87063 8.43656 5.6925 8.50551 5.55713 8.62963L4.11788 9.98108L4.809 7.63672C4.87313 7.43677 4.83038 7.21612 4.695 7.04374C4.55963 6.87136 4.34588 6.76793 4.125 6.76793H3.62625L5.94188 5.27168Z" fill="#359740"/>
<path d="M12.1691 10.7053C12.3116 10.8363 12.4898 10.9052 12.675 10.9052C12.8603 10.9052 13.0384 10.8363 13.1809 10.7053C13.4588 10.4364 13.4588 10.002 13.1809 9.73306L12.4684 9.04354C12.1905 8.77463 11.7416 8.77463 11.4638 9.04354C11.1859 9.31245 11.1859 9.74685 11.4638 10.0158L12.1691 10.7053Z" fill="#359740"/>
<path d="M16.4441 10.0157C16.5866 10.1467 16.7647 10.2157 16.95 10.2157C17.1352 10.2157 17.3134 10.1467 17.4559 10.0157C17.7337 9.74679 17.7337 9.31239 17.4559 9.04348L16.7434 8.35397C16.4655 8.08505 16.0166 8.08505 15.7387 8.35397C15.4609 8.62288 15.4609 9.05727 15.7387 9.32618L16.4441 10.0157Z" fill="#359740"/>
<path d="M13.1809 14.5528L12.4684 13.8633C12.1905 13.5944 11.7416 13.5944 11.4638 13.8633C11.1859 14.1322 11.1859 14.5666 11.4638 14.8355L12.1763 15.525C12.3116 15.6629 12.4898 15.7319 12.675 15.7319C12.8603 15.7319 13.0384 15.6629 13.1809 15.5319C13.4588 15.263 13.4588 14.8217 13.1809 14.5528Z" fill="#359740"/>
<path d="M15.0191 13.4633C15.1616 13.5943 15.3397 13.6633 15.525 13.6633C15.7102 13.6633 15.8884 13.5943 16.0309 13.4633C16.3087 13.1944 16.3087 12.76 16.0309 12.4911L15.3184 11.8016C15.0405 11.5327 14.5916 11.5327 14.3137 11.8016C14.0359 12.0705 14.0359 12.5049 14.3137 12.7738L15.0191 13.4633Z" fill="#359740"/>
<path d="M17.8691 13.4633L18.5816 14.1528C18.7241 14.2839 18.9023 14.3528 19.0875 14.3528C19.2728 14.3528 19.4509 14.2839 19.5934 14.1528C19.8713 13.8839 19.8713 13.4495 19.5934 13.1806L18.8809 12.4911C18.603 12.2222 18.1541 12.2222 17.8763 12.4911C17.5913 12.7531 17.5913 13.1944 17.8691 13.4633Z" fill="#359740"/>
<path d="M16.7434 15.2423C16.4655 14.9734 16.0166 14.9734 15.7387 15.2423C15.4609 15.5112 15.4609 15.9456 15.7387 16.2145L16.4512 16.904C16.5866 17.0419 16.7647 17.1109 16.95 17.1109C17.1352 17.1109 17.3134 17.0419 17.4559 16.9109C17.7337 16.642 17.7337 16.2076 17.4559 15.9387L16.7434 15.2423Z" fill="#359740"/>
</svg>
